<?xml version="1.0" encoding="UTF-8"?>
<svg id="Layer_2" xmlns="http://www.w3.org/2000/svg" viewBox="0 0 286.27 321.35">
  <defs>
    <style>
      .cls-1 {
        fill: #729763;
      }
    </style>
  </defs>
  <g id="Layer_1-2" data-name="Layer_1">
    <g>
      <path d="M112.48,133.43c-.04-.63-.04-1.25-.01-1.86-1.86-1.88-3.42-3.11-4.69-3.67-1.89-.01-3.37-.16-4.48-.45-1.33-.34-1.96-1.09-1.89-2.25-.94,0-2.44.55-4.49,1.67-2.06,1.12-3.41,1.59-4.08,1.42l-1.15-1c-1.17-.06-1.91.57-2.25,1.89l-.44,3.07-1.28,4.97c-1.88-.01-3.27-.13-4.15-.36-1.11-.29-1.82-.7-2.15-1.26-.72.05-1.61.06-2.66.02-1.05-.03-2.24-.22-3.56-.56.12-1.38-.3-2.73-1.26-4.03-.96-1.31-1.6-2.24-1.93-2.79-1.05-.5-1.71-1.38-1.97-2.63-.27-1.25-.46-2.12-.56-2.62l-.39-3.99c.21-.13.45-.27.67-.4-.76-.48-1.49-1.06-2.16-1.73-4.79-4.79-5.1-13.49,0-18.23,2.85-2.65,5.88-5.02,9.03-7.21-2.5.93-5.33,1.16-8.11.63-5.84-1.12-13.02.33-19.56,1.77-1.92,3.53-5.51,6.11-10.79,6.06-4.24-.04-8.46-.29-12.69-.58-1.47-.1-2.94-.2-4.41-.29-2.67.39-5.34.73-8.03,1.02,1.42,3.14,2.87,5.51,4.33,7.07,1.71.68,3.21,1.95,4.5,3.81,1.29,1.87,2.29,3.24,3,4.13.15,1.22.91,2.18,2.26,2.88,1.35.7,2.33,1.25,2.94,1.64-.68,1.71-1.82,3.42-3.44,5.12-1.62,1.7-2.76,2.94-3.43,3.71-2.29,2.47-6.43,5.29-12.42,8.46-.79,1.21-2.64,3.15-5.56,5.81-2.93,2.66-4.67,5.1-5.24,7.31.21,1.94.79,4.68,1.77,8.23,1.08,3.11,1.76,5.52,2.02,7.23-.83-.45-1.17-.06-1,1.16.15,1.22.18,2.05.07,2.49-.26,4.65,1.13,7.48,4.17,8.49,1.54,1.34,2.19,3.39,1.95,6.15.01.07.03.13.05.19.54.59,1.02,1.22,1.47,1.88.18.05.37.07.58.05,1.08-.08,2.75-.41,5.03-1-.06.22.25.42.91.59.66.17.82.45.49.83,5.55-3.28,11.82-5.67,18.8-7.17l7.52-7.25c7.02-7.14,12.72-11.92,17.11-14.32,2.66-1.2,5.9-1.89,9.72-2.09,1.76,1.28,2.23.63,1.93,1.85,6.07.43,9.46,5.56,9.38,13.4-.14,13.67-7.42,24.27-14.84,35.11-2.78,4.06-7.23,6.53-11.85,6.34-1.37.9-3,1.54-4.88,1.82-1.58,4.48-5.46,8.05-11.63,8.05-9.54,0-13.58-8.5-12.16-15.74-.4-.2-.75-.4-1.04-.61-1.32-1.28-4.01-3.62-8.08-7.03-.84-.7-1.64-1.39-2.43-2.08.2.62.41,1.23.61,1.83,1.88,5.47,4.43,11.61,9.11,15.49,4.56,3.78,4.66,10.95,1.81,15.83.02.12.04.24.06.37.05.39.07.64.08.81.04.16.09.38.16.7.28,1.32.5,2.65.8,3.97.58,2.52,1.27,5.01,2.12,7.45.09.25.19.51.28.76,10.08-2.84,16.45,6.08,15.71,14.16,1.16-.48,2.48-1.22,3.98-2.23,2.28-1.53,3.92-2.41,4.91-2.62,1.44-1.04,4.42-3.45,8.93-7.24,4.51-3.79,8.41-7.5,11.7-11.12l3.68-4.7c.06.11.14.26.23.44,1.15-3.16,3.21-5.86,5.81-7.93.09-.16.24-.35.44-.56.81-.85,1.38-1.47,1.71-1.85,0-.03.02-.06.03-.08.36-2.25,1.05-4.4,2.03-6.3.05-.1.11-.18.16-.27,5.35-15.6,11.59-30.42,18.72-44.48l3.75-6.54c.52-2.71,1.06-5.43,1.85-8.07.12-.68.21-1.15.28-1.42.02-.54.03-1.09.02-1.63,0-1.62-.11-3.25-.25-4.86-.37-4.35-1.06-8.66-1.33-13.02Z"/>
      <path d="M168.52,33.3c.5-1.05.65-3.01.46-5.89-2.03-3.11-4.78-5.94-8.24-8.48-3.47-2.54-5.62-4.03-6.44-4.48l-6.77-5.27c-1.88-.95-4.3-2.52-7.27-4.7-2.97-2.18-5.57-3.55-7.77-4.12-2.21-.57-4.48-.45-6.81.37l-6.83,3.19c-2.38-.84-7.14.28-14.3,3.39l-8.48,2.76c-1.5.32-4.52,1.08-9.06,2.26-4.55,1.19-9.27,2.15-14.17,2.89-4.9.74-9.84.71-14.81-.1-.71-.89-1.01-2.03-.89-3.41.12-1.38.24-2.29.35-2.74-1.11-.29-3.1-.32-5.97-.12-1.78.49-4.19,1.63-7.24,3.44-.67.77-.91,1.94-.73,3.52.18,1.58.19,2.7.02,3.36.08,3.32.56,6.5,1.43,9.55.86,3.05,2.38,7.21,4.56,12.48,1.15,1,2.51,2.36,4.08,4.05,1.56,1.7,3.2,2.89,4.91,3.56.93.95,2.06,1.59,3.39,1.93,1.99.51,4.72.39,8.22-.36,3.49-.75,5.98-1.29,7.48-1.61l7.06-1.36c4.37-.52,7.92-1.26,10.64-2.21,2.72-.95,4.89-2.74,6.51-5.39,2.38-.09,3.28.97,2.72,3.17-.34,1.32-.86,2.67-1.56,4.01-.7,1.35-1.34,2.66-1.89,3.93-.9,1.66-2.48,4.37-4.75,8.14-2.27,3.78-4.74,7.44-7.42,10.99-1.47,1.94-3.12,3.69-4.95,5.25.88,2.53,1.07,5.28.39,7.75-.58,2.1-1.61,3.85-2.95,5.26,3.43-2.1,6.96-4.04,10.58-5.86,6.24-3.14,13.93-1.7,17.63,4.62,3.36,5.74,1.59,14.51-4.62,17.63-.61.3-1.21.62-1.81.93,2.04-.43,4.28-.84,6.74-1.22,5.87-.84,10.11-1.75,12.72-2.73-.37-2.22.85-3.31,3.67-3.29,1.05-.44,1.49-1.44,1.31-3.02-.19-1.58.06-2.28.72-2.11,1.16.07,2.25.17,3.28.31,1.02.15,2.11.25,3.28.31.82.45,1.31.63,1.45.55.14-.08-.04-.54-.53-1.37-.49-.83-.88-1.64-1.15-2.41,1.88.01,3.67-.76,5.37-2.33,1.69-1.56,2.85-2.62,3.47-3.17-.38-1.27-1.48-2.5-3.29-3.67-1.82-1.17-3.12-2.09-3.88-2.77-.88-1.17-1.98-1.92-3.3-2.26l-3.07-.44c-1.27-.56-1.79-1.28-1.56-2.17.28-1.1,1.62-2.41,4.01-3.91,2.39-1.51,4.03-2.61,4.92-3.33,1-1.15,2.53-2.29,4.59-3.41,2.05-1.12,3.64-2.01,4.75-2.66,4.67-3.51,8.37-6.44,11.1-8.8l.17-.66,1.76-2.73c.33-.38.95-1.17,1.84-2.35.89-1.18,1.83-1.87,2.83-2.09.43-.9.95-1.76,1.52-2.57.03-.17.05-.34.08-.52.59-2.8,1.88-5.3,3.64-7.42-.36-.03-.71-.06-1.1-.1Z"/>
    </g>
    <path class="cls-1" d="M193.28,93.27c1.61,0,3.07.25,4.37.69.4-.28.79-.59,1.18-.95,1.69-1.56,2.85-2.62,3.47-3.17-.38-1.27-1.48-2.5-3.29-3.67-1.82-1.17-3.12-2.09-3.88-2.77-.88-1.17-1.98-1.92-3.3-2.26l-3.07-.44c-.54-.24-11.67-1.36-24.23-2.63-.51,6-4.64,11.63-12.39,11.63-8.88,0-13-7.36-12.39-14.22-6.81-.76-11.51-1.37-11.45-1.62.08-.3.24-.62.48-.96-.94-.03-1.87-.06-2.81-.07-3.18-.06-6.35-.07-9.53-.04-6.38.06-12.77.13-19.12.67-4.78.4-7.08.69-12.69,1.3-1.79,1.67-3.49,2.79-5.66,4.07l-11.48,3.4c-12.75,3.78-22.31,6.15-28.68,7.1-2.16.15-4.23-.03-6.22-.54-1.32-.34-2.9-.86-4.72-1.57-1.82-.7-3.42-1.11-4.8-1.24-4.05,1.08-7.35,2.47-9.9,4.16-.89.72-1.48,1.62-1.76,2.73-.17.66-.21,1.71-.1,3.15,1.95,5.22,3.94,8.91,5.98,11.08,1.71.68,3.21,1.95,4.5,3.81,1.29,1.87,2.29,3.24,3,4.13.15,1.22.91,2.18,2.26,2.88,1.35.7,2.33,1.25,2.94,1.64-.25.63-.73,1.71-1.1,2.33,5.74-.62,11.65-1.4,17.42-1.74,1.54-.09,3.03,0,4.47.22,4.34-.65,8.68-1.33,13.04-1.94,2.01-.28,3.96-.19,5.81.2,4.45-2.71,10.47-5.34,18.11-7.88l9.4-3.59c3.32-1.03,7.56-1.94,12.72-2.73,5.87-.84,10.11-1.75,12.72-2.73-.32-1.92,44.8.51,58.67,1.21,1.17-5.19,5.2-9.64,12.08-9.64Z"/>
    <path d="M252.78,92.19c.5-1.05.65-3.01.46-5.89-2.03-3.11-4.78-5.94-8.24-8.48-3.47-2.54-5.62-4.03-6.44-4.48l-6.77-5.27c-1.88-.95-4.3-2.52-7.27-4.7-2.97-2.18-5.57-3.55-7.77-4.12-2.21-.57-4.48-.45-6.81.37l-6.83,3.19c-2.38-.84-7.14.28-14.3,3.39l-8.48,2.76c-1.5.32-4.52,1.08-9.06,2.26-4.55,1.19-9.27,2.15-14.17,2.89-4.91.74-9.84.71-14.81-.1-.71-.89-1.01-2.03-.89-3.41.12-1.38.24-2.29.35-2.74-1.11-.29-3.1-.32-5.97-.12-1.78.49-4.19,1.63-7.24,3.44-.67.77-.92,1.94-.73,3.52.18,1.58.19,2.7.02,3.36.08,3.32.56,6.5,1.43,9.55.86,3.05,2.38,7.21,4.56,12.48,1.15,1,2.51,2.36,4.08,4.05,1.56,1.7,3.2,2.89,4.91,3.56.93.95,2.06,1.59,3.39,1.93,1.99.51,4.72.39,8.22-.36,3.49-.75,5.98-1.29,7.48-1.61l7.06-1.36c4.37-.52,7.92-1.26,10.64-2.21,2.72-.95,4.89-2.74,6.51-5.39,2.38-.09,3.28.97,2.72,3.17-.34,1.32-.86,2.67-1.56,4.01-.7,1.35-1.34,2.66-1.89,3.93-.9,1.66-2.48,4.37-4.75,8.14-2.27,3.78-4.74,7.44-7.42,10.99-2.68,3.55-5.97,6.47-9.85,8.77l-11.48,3.41c-5.46,1.62-10.33,2.98-14.61,4.08-.89,5.59-4.97,10.59-12.26,10.63-1.52,0-3.04.03-4.55.11-.43.02-3.37.33-3.29.26-1.12.19-2.25.41-3.35.7-.28.07-2,.71-2.61.89-.02.01-.04.02-.06.03-.02.01-.03.02-.05.03,0,0,0,.02,0,.02.2.89.44,1.76.73,2.62,1.65,5.4-.12,9.74-3.37,12.51.26.35.51.67.72.93.15,1.22.91,2.18,2.26,2.88,1.35.7,2.33,1.25,2.94,1.64-.68,1.71-1.82,3.42-3.44,5.12-1.62,1.7-2.76,2.94-3.43,3.71-2.29,2.47-6.43,5.29-12.42,8.46-.79,1.21-2.64,3.15-5.56,5.81-2.93,2.66-4.67,5.1-5.24,7.31.21,1.94.79,4.68,1.77,8.23,1.08,3.11,1.76,5.52,2.02,7.23-.83-.45-1.17-.06-1,1.16.15,1.22.18,2.05.07,2.49-.26,4.65,1.13,7.48,4.17,8.49,1.54,1.34,2.19,3.39,1.95,6.15.32,1.5,1.02,2.21,2.1,2.13,1.08-.08,2.75-.41,5.03-1-.06.22.25.42.91.59.66.17.82.45.49.83,5.55-3.28,11.82-5.67,18.8-7.17l7.52-7.25c7.02-7.14,12.72-11.92,17.11-14.32,2.66-1.2,5.9-1.89,9.72-2.09.03.5,1.86.84,1.71,1.63,2.51-.07,3.12.78,5.1,1.94,6.5,3.8,7.4,11.26,4.62,17.63-7.46,17.13-16.95,33.34-29.8,47.02-10.61,11.29-27.12-3.79-20.14-15.67-.49-.08-.97-.18-1.44-.3-2.43-.63-4.14-1.3-5.13-2.03-1.32-1.28-4.01-3.62-8.08-7.03-3.8-3.17-7.1-6.23-9.94-9.16.08.27.15.55.22.83.05.09.1.2.18.35.7.59,1.17,2.1,1.69,2.93,1.11,1.77,2.34,3.46,3.5,5.2,2.38,3.56,4.11,7.44,6.05,11.24,4.62,9.03,10.5,17.69,14.43,27.03,1.5,3.56,2.67,7.22,4.01,10.83.04.11.15.35.27.61,1.24-.24,2.52-.42,3.18-.57,2.38-.54,4.76-1.09,7.12-1.68,5.33-1.32,10.6-2.83,15.79-4.63,1.63-.56,3.31-.69,4.95-.46,2.34-2.17,4.47-4.32,6.39-6.44l3.68-4.7c.06.11.14.26.23.44,1.15-3.16,3.21-5.86,5.81-7.93.09-.16.24-.35.44-.56.81-.85,1.38-1.47,1.71-1.85,0-.03.02-.06.03-.08.36-2.25,1.05-4.4,2.03-6.3.05-.1.11-.18.16-.27,5.35-15.6,11.59-30.42,18.72-44.48l3.75-6.54c.52-2.71,1.06-5.43,1.85-8.07.12-.68.21-1.15.28-1.42.02-.54.03-1.09.02-1.63,0-1.62-.11-3.25-.25-4.86-.37-4.35-1.06-8.66-1.33-13.02-.04-.63-.04-1.25-.01-1.86-1.86-1.88-3.42-3.11-4.69-3.67-1.89-.01-3.37-.16-4.48-.45-1.33-.34-1.96-1.09-1.89-2.25-.94,0-2.44.55-4.49,1.67-2.06,1.12-3.41,1.59-4.08,1.42l-1.15-1c-1.17-.06-1.91.57-2.25,1.89l-.44,3.07-1.28,4.97c-1.88-.01-3.27-.13-4.15-.36-1.11-.29-1.82-.7-2.15-1.26-.72.05-1.61.06-2.66.02-1.05-.03-2.24-.22-3.56-.56.12-1.38-.3-2.73-1.26-4.03-.96-1.31-1.6-2.24-1.93-2.79-1.05-.5-1.71-1.38-1.97-2.63-.27-1.25-.46-2.12-.56-2.62l-.39-3.99s.05-.03.07-.04c-6.7-6.32-4.84-20.1,5.54-22.31,1.55-4.56,5.44-8.21,11.69-8.21,10.84,0,14.59,10.96,11.29,18.59,3.25-.97,7.34-1.84,12.26-2.6,5.87-.84,10.11-1.75,12.72-2.73-.37-2.22.85-3.31,3.67-3.29,1.05-.44,1.49-1.44,1.31-3.02-.19-1.58.06-2.28.72-2.11,1.16.07,2.25.17,3.28.31,1.02.15,2.11.25,3.28.31.82.45,1.31.63,1.45.55.14-.08-.04-.54-.53-1.37-.49-.83-.88-1.64-1.15-2.41,1.88.01,3.67-.76,5.37-2.33,1.69-1.56,2.85-2.62,3.47-3.17-.38-1.27-1.48-2.5-3.29-3.67-1.82-1.17-3.12-2.09-3.88-2.77-.88-1.17-1.98-1.92-3.3-2.26l-3.07-.44c-1.27-.56-1.79-1.28-1.56-2.17.28-1.1,1.62-2.41,4.01-3.91,2.39-1.51,4.03-2.61,4.92-3.33,1-1.15,2.53-2.29,4.59-3.41,2.05-1.12,3.64-2.01,4.75-2.66,4.67-3.51,8.37-6.44,11.1-8.8l.17-.66,1.76-2.73c.33-.38.95-1.17,1.84-2.35.89-1.18,1.83-1.88,2.83-2.09.43-.9.95-1.76,1.52-2.57.03-.17.05-.34.08-.52.59-2.8,1.88-5.3,3.64-7.42-.36-.03-.71-.06-1.1-.1Z"/>
    <path class="cls-1" d="M286.27,148.75c-.38-1.27-1.48-2.5-3.29-3.67-1.82-1.17-3.12-2.09-3.88-2.77-.88-1.17-1.98-1.92-3.3-2.26l-3.07-.44c-1.27-.56-60.29-5.98-60.06-6.86.04-.14-.01-.08-.05,0-.93-.03-2.18-.1-3.1-.12-3.07-.06-6.14-.07-9.2-.04-11.13,1.12-22.21,1.72-33.44,2.71-1.22.88-2.48,1.58-3.93,2.44l-11.48,3.4c-12.75,3.78-22.31,6.15-28.68,7.1-2.16.15-4.23-.03-6.22-.54-1.33-.34-2.9-.86-4.72-1.57-1.82-.7-3.42-1.11-4.8-1.24-4.05,1.08-7.35,2.47-9.9,4.16-.89.72-1.48,1.62-1.76,2.73-.17.66-.21,1.71-.1,3.15,1.95,5.22,3.94,8.91,5.98,11.08,1.71.68,3.21,1.95,4.5,3.81,1.29,1.87,2.29,3.24,3,4.13.15,1.22.91,2.18,2.26,2.88,1.35.7,2.33,1.25,2.94,1.64-.25.63-.35,1.54-.73,2.17,5.74-.62,11.28-1.23,17.04-1.58,1.54-.09,3.03,0,4.47.22,4.34-.65,8.68-1.33,13.04-1.94,2.01-.28,3.96-.19,5.81.2,4.45-2.71,10.47-5.34,18.11-7.88l9.4-3.59c3.32-1.03,7.57-1.94,12.72-2.73,5.87-.84,10.11-1.75,12.72-2.73-.37-2.22,59.75,1.37,62.57,1.38,1.05-.44,1.49-1.44,1.31-3.02-.19-1.58.06-2.28.72-2.11,1.16.07,2.25.17,3.28.31,1.02.15,2.11.25,3.28.31.82.45,1.31.63,1.45.55.14-.08-.04-.54-.53-1.37-.49-.83-.88-1.64-1.15-2.41,1.88.01,3.67-.76,5.37-2.33,1.69-1.56,2.85-2.62,3.47-3.17Z"/>
    <path class="cls-1" d="M198.83,211.68c.02-.54.03-1.09.02-1.63,0-1.62-.11-3.25-.25-4.86-.37-4.35,10.21-44.31,9.94-48.67-.04-.63-.04-1.25-.01-1.86-1.86-1.88-3.42-3.11-4.69-3.67-1.89-.01-3.37-.16-4.48-.45-1.33-.34-1.96-1.09-1.89-2.25-.94,0-2.44.55-4.49,1.67-2.06,1.12-3.41,1.59-4.08,1.42l-1.15-1c-1.17-.06-1.91.57-2.25,1.89l-.44,3.07-1.28,4.97c-.98,0-13.06,35.6-13.76,35.54.24,2.86-.23,5.57-1.26,8.03-.05.13-.09.27-.15.41-.04.09-.08.19-.12.28-.13.3-.27.61-.42.9-.04.09-.08.17-.13.26-.19.36-.38.71-.6,1.06-.04.07-.08.13-.13.2-.18.29-.37.57-.57.85-.06.09-.12.17-.18.25-.24.33-.49.65-.76.97-.02.02-.03.04-.05.05-.25.3-.51.58-.78.86-.07.08-.14.15-.22.22-.26.27-.53.53-.81.78-.03.03-.06.05-.09.08-.31.28-.63.54-.95.8-.07.06-.15.12-.23.17-.28.21-.56.42-.85.62-.06.04-.12.09-.18.13-.34.23-.7.45-1.05.67-.06.04-.13.07-.19.11-.31.18-.62.35-.94.51-.08.04-.16.08-.24.12-.38.19-.76.37-1.14.53-.03.01-.06.02-.09.03-.36.15-.72.29-1.09.42-.09.03-.21.02-.27.09-.04.06-.06.38-.06.43-.07.48-.2,2.24-.35,2.85-.34,1.32-1.95,2.61-2.54,3.99-.59,1.38-1.18,1.48-1.52,2.81-9.87,18.19-19.67,32.03-29.42,41.54-2.66.26-4.94.13-7.15-.44-2.43-.63-4.14-1.3-5.13-2.03-1.32-1.28-4.01-3.62-8.08-7.03-4.07-3.4-7.59-6.66-10.55-9.78-.55-.61-1.24-1.61-2.05-3-.82-1.39-1.78-2.22-2.89-2.51l-.09.33c1.21.79,1.93,1.86,2.18,3.21.24,1.36.41,2.29.52,2.78l4.5,8.58c-.01.94-.43,1.19-1.25.74-.83-.45-1.52-.98-2.06-1.59-.5.11-.97-.13-1.41-.71-.44-.58-.94-.71-1.49-.38,2.24,3.17,3.56,5.39,3.94,6.67l-.33-.09c-.4,1.55.07,3.14,1.42,4.78,1.34,1.64,2.29,2.77,2.84,3.38,3.11,5.28,4.92,8.81,5.4,10.58l2.6,7.74c-.56,1.27-.52,2.69.14,4.27.65,1.58,1.11,2.76,1.39,3.54-.39.61-.73,1.23-1.01,1.86-.28.63-.62,1.25-1.01,1.86-1.11.65-1.43,1.45-.97,2.4.46.94,1.43,2.19,2.92,3.75,1.48,1.56,2.36,2.73,2.63,3.5.21.99-.16,1.78-1.14,2.36-.98.57-2.01.72-3.11.43-.66-.17-1.16-.54-1.49-1.09l-3.81-1.69c.54,1.55,2.36,3.2,5.44,4.93l7.59,6.19.09-.33.25.42,2.32.6c1.1.28,2.15.32,3.15.1.84-1.43,2.26-2.6,4.26-3.5,2-.9,3.41-1.59,4.25-2.09.82,1.39,1.98,1.92,3.47,1.6,1.5-.32,3.38-1.25,5.66-2.78,2.28-1.53,3.92-2.41,4.91-2.62,1.44-1.04,4.42-3.45,8.93-7.24,4.51-3.79,8.41-7.5,11.7-11.12l3.68-4.7c.06.11.14.26.23.44,1.15-3.16,3.21-5.86,5.81-7.93.09-.16.24-.35.44-.56.81-.85,1.38-1.47,1.71-1.85,0-.03.02-.06.03-.08.36-2.25,1.05-4.4,2.03-6.3.05-.1.11-.18.16-.27,5.35-15.6,11.59-30.42,18.72-44.48l3.75-6.54c.52-2.71,1.06-5.43,1.85-8.07.12-.68.21-1.15.28-1.42ZM101.94,271.06l-1.24-.67-5.19-5.93.09-.33c2.75,2.12,4.92,4.21,6.51,6.27l-.17.66Z"/>
    <path class="cls-1" d="M169.32,199.19c-3.43,7-6.85,14.01-10.28,21.01-.84,1.73,1.74,3.25,2.59,1.51,3.43-7,6.85-14.01,10.28-21.01.84-1.73-1.74-3.25-2.59-1.51h0Z"/>
    <path class="cls-1" d="M159.48,217.62c4.85-3.63,9.34-7.7,13.4-12.2.54-.6.59-1.53,0-2.12-.55-.55-1.58-.6-2.12,0-3.88,4.3-8.16,8.25-12.79,11.73-.65.49-.98,1.3-.54,2.05.37.64,1.4,1.03,2.05.54h0Z"/>
    <path class="cls-1" d="M114.57,152.79c.02-.54.03-1.09.02-1.63,0-1.62-.11-3.25-.25-4.86-.37-4.35,10.21-44.31,9.94-48.67-.04-.63-.04-1.25-.01-1.86-1.86-1.88-3.42-3.11-4.69-3.67-1.89-.01-3.37-.16-4.48-.45-1.33-.34-1.96-1.09-1.89-2.25-.94,0-2.44.55-4.49,1.67-2.06,1.12-3.41,1.59-4.08,1.42l-1.15-1c-1.17-.06-1.91.57-2.25,1.89l-.44,3.07-1.28,4.97c-.98,0-13.06,35.6-13.76,35.54.24,2.86-.23,5.57-1.26,8.03-.05.13-.09.27-.15.41-.04.09-.08.19-.12.28-.13.3-.27.61-.42.9-.04.09-.08.17-.13.26-.19.36-.38.71-.6,1.06-.04.07-.08.13-.13.2-.18.29-.37.57-.57.85-.06.09-.12.17-.18.25-.24.33-.49.65-.76.97-.02.02-.03.04-.05.05-.25.3-.51.58-.78.86-.07.08-.14.15-.22.22-.26.27-.53.53-.81.78-.03.03-.06.05-.09.08-.31.28-.63.54-.95.8-.07.06-.15.12-.23.17-.28.21-.56.42-.85.62-.06.04-.12.09-.18.13-.34.23-.7.45-1.05.67-.06.04-.13.07-.19.11-.31.18-.62.35-.94.51-.08.04-.16.08-.24.12-.38.19-.76.37-1.14.53-.03.01-.06.02-.09.03-.36.15-.72.29-1.09.42-.09.03-.21.02-.27.09-.04.06-.06.38-.06.43-.07.48-.2,2.24-.35,2.85-.34,1.32-1.95,2.61-2.54,3.99-.59,1.38-1.18,1.48-1.52,2.81-9.87,18.19-19.67,32.03-29.42,41.54-2.66.26-4.94.13-7.15-.44-2.43-.63-4.14-1.3-5.13-2.03-1.32-1.28-4.01-3.62-8.08-7.03-4.07-3.4-7.59-6.66-10.55-9.78-.55-.61-1.24-1.61-2.05-3-.82-1.39-1.78-2.22-2.89-2.51l-.09.33c1.21.79,1.93,1.86,2.18,3.21.24,1.36.41,2.29.52,2.78l4.5,8.58c-.01.94-.43,1.19-1.25.74-.83-.45-1.52-.98-2.06-1.59-.5.11-.97-.13-1.41-.71-.44-.58-.94-.71-1.49-.38,2.24,3.17,3.56,5.39,3.94,6.67l-.33-.09c-.4,1.55.07,3.14,1.42,4.78,1.34,1.64,2.29,2.77,2.84,3.38,3.11,5.28,4.92,8.81,5.4,10.58l2.6,7.74c-.56,1.27-.52,2.69.14,4.27.65,1.58,1.11,2.76,1.39,3.54-.39.61-.73,1.23-1.01,1.86-.28.63-.62,1.25-1.01,1.86-1.11.65-1.43,1.45-.97,2.4.46.94,1.43,2.19,2.92,3.75,1.48,1.56,2.36,2.73,2.63,3.5.21.99-.16,1.78-1.14,2.36-.98.57-2.01.72-3.11.43-.66-.17-1.16-.54-1.49-1.09l-3.81-1.69c.54,1.55,2.36,3.2,5.44,4.93l7.59,6.19.09-.33.25.42,2.32.6c1.1.28,2.15.32,3.15.1.84-1.43,2.26-2.6,4.26-3.5,2-.9,3.41-1.59,4.25-2.09.82,1.39,1.98,1.92,3.47,1.6,1.5-.32,3.38-1.25,5.66-2.78,2.28-1.53,3.92-2.41,4.91-2.62,1.44-1.04,4.42-3.45,8.93-7.24,4.51-3.79,8.41-7.5,11.7-11.12l3.68-4.7c.06.11.14.26.23.44,1.15-3.16,3.21-5.86,5.81-7.93.09-.16.24-.35.44-.56.81-.85,1.38-1.47,1.71-1.85,0-.03.02-.06.03-.08.36-2.25,1.05-4.4,2.03-6.3.05-.1.11-.18.16-.27,5.35-15.6,11.59-30.42,18.72-44.48l3.75-6.54c.52-2.71,1.06-5.43,1.85-8.07.12-.68.21-1.15.28-1.42ZM17.69,212.17l-1.24-.67-5.19-5.93.09-.33c2.75,2.12,4.92,4.21,6.51,6.27l-.17.66Z"/>
    <path class="cls-1" d="M84.8,140.09c-3.43,7-6.85,14.01-10.28,21.01-.84,1.73,1.74,3.25,2.59,1.51,3.43-7,6.85-14.01,10.28-21.01.84-1.73-1.74-3.25-2.59-1.51h0Z"/>
    <path class="cls-1" d="M87.85,140.49l.76-1.79-2.74-1.16c-.42,1.09-.83,2.17-1.25,3.26-.13.33-.04.87.15,1.16s.41.48.72.61c.65.28,1.53.05,1.87-.61.75-1.45,1.5-2.89,2.25-4.34.36-.7.2-1.66-.54-2.05-.69-.36-1.67-.21-2.05.54-.75,1.45-1.5,2.89-2.25,4.34l2.74,1.16c.42-1.09.83-2.17,1.25-3.26.13-.33.04-.87-.15-1.16s-.41-.48-.72-.61-.66-.18-.98-.08c-.34.11-.75.34-.9.69l-.76,1.79c-.16.39-.27.73-.15,1.16.1.35.36.73.69.9.35.18.77.28,1.16.15.34-.11.75-.34.9-.69h0Z"/>
    <path class="cls-1" d="M170.93,200.93c1.93,0,1.93-3,0-3s-1.93,3,0,3h0Z"/>
    <path class="cls-1" d="M172.35,199.82c.11-.32.23-.64.36-.95l-.15.36c.22-.52.46-1.03.73-1.53l-2.74-1.16c-.5,1.33-1,2.65-1.5,3.98l2.95.4c-.02-.27-.02-.54.02-.81l-.05.4c.08-.52.25-1.01.45-1.49l-.15.36c.36-.85.79-1.67,1.04-2.56.21-.76-.26-1.67-1.05-1.85s-1.62.24-1.85,1.05c-.09.32-.2.62-.33.92l.15-.36c-.59,1.38-1.38,2.77-1.24,4.33.04.39.14.78.44,1.06.25.23.53.37.86.41s.68,0,.96-.18c.35-.22.54-.51.69-.9.5-1.33,1-2.65,1.5-3.98.12-.33.04-.86-.15-1.16s-.41-.48-.72-.61c-.66-.28-1.52-.05-1.87.61-.49.91-.9,1.86-1.25,2.83-.12.35-.03.84.15,1.16s.54.61.9.69c.84.19,1.57-.25,1.85-1.05h0Z"/>
    <path class="cls-1" d="M170.48,201.57c1.93,0,1.93-3,0-3s-1.93,3,0,3h0Z"/>
  </g>
</svg>