<?xml version="1.0" encoding="UTF-8"?>
<svg id="Layer_2" xmlns="http://www.w3.org/2000/svg" viewBox="0 0 269.68 269.64">
  <defs>
    <style>
      .cls-1 {
        font-family: OpenSans-Regular, 'Open Sans';
        font-size: 41px;
        font-variation-settings: 'wght' 400, 'wdth' 100;
      }
    </style>
  </defs>
  <g id="Layer_1-2" data-name="Layer_1">
    <text class="cls-1" transform="translate(136.95 34.02) rotate(9.63)"><tspan x="0" y="0">G</tspan></text>
    <text class="cls-1" transform="translate(164.7 38.95) rotate(23.91)"><tspan x="0" y="0">e</tspan></text>
    <text class="cls-1" transform="translate(184.5 48.02) rotate(34.02)"><tspan x="0" y="0">t</tspan></text>
    <text class="cls-1" transform="translate(195.92 55.82) rotate(40.79)"><tspan x="0" y="0"> </tspan></text>
    <text class="cls-1" transform="translate(203.48 62.12) rotate(47.53)"><tspan x="0" y="0">t</tspan></text>
    <text class="cls-1" transform="translate(212.97 71.64) rotate(58.04)"><tspan x="0" y="0">o</tspan></text>
    <text class="cls-1" transform="translate(225 91.83) rotate(67.55)"><tspan x="0" y="0"> </tspan></text>
    <text class="cls-1" transform="translate(229.14 100.56) rotate(76.24)"><tspan x="0" y="0">k</tspan></text>
    <text class="cls-1" transform="translate(234.25 120.01) rotate(88.74)"><tspan x="0" y="0">n</tspan></text>
    <text class="cls-1" transform="translate(234.93 143.69) rotate(102.06)"><tspan x="0" y="0">o</tspan></text>
    <text class="cls-1" transform="translate(230.79 166.36) rotate(117.3)"><tspan x="0" y="0">w</tspan></text>
    <text class="cls-1" transform="translate(216.06 192.92) rotate(128.68)"><tspan x="0" y="0"> </tspan></text>
    <text class="cls-1" transform="translate(211.54 201.29) rotate(141.66)"><tspan x="0" y="0">m</tspan></text>
    <text class="cls-1" transform="translate(182.79 223.03) rotate(158.04)"><tspan x="0" y="0">e</tspan></text>
    <text class="cls-1" transform="translate(162.31 230.85) rotate(167.15)"><tspan x="0" y="0"> </tspan></text>
    <text class="cls-1" transform="translate(152.61 233.1) rotate(172.91)"><tspan x="0" y="0">·</tspan></text>
    <text class="cls-1" transform="translate(142.62 234.37) rotate(178.62)"><tspan x="0" y="0"> </tspan></text>
    <text class="cls-1" transform="translate(133.17 235.62) rotate(-170.61)"><tspan x="0" y="0">G</tspan></text>
    <text class="cls-1" transform="translate(105.39 230.81) rotate(-156.33)"><tspan x="0" y="0">e</tspan></text>
    <text class="cls-1" transform="translate(85.54 221.81) rotate(-146.22)"><tspan x="0" y="0">t</tspan></text>
    <text class="cls-1" transform="translate(74.1 214.08) rotate(-139.45)"><tspan x="0" y="0"> </tspan></text>
    <text class="cls-1" transform="translate(66.52 207.81) rotate(-132.72)"><tspan x="0" y="0">t</tspan></text>
    <text class="cls-1" transform="translate(56.98 198.32) rotate(-122.2)"><tspan x="0" y="0">o</tspan></text>
    <text class="cls-1" transform="translate(44.86 178.16) rotate(-112.69)"><tspan x="0" y="0"> </tspan></text>
    <text class="cls-1" transform="translate(40.68 169.44) rotate(-103.98)"><tspan x="0" y="0">k</tspan></text>
    <text class="cls-1" transform="translate(35.49 150) rotate(-91.47)"><tspan x="0" y="0">n</tspan></text>
    <text class="cls-1" transform="translate(34.72 126.37) rotate(-78.19)"><tspan x="0" y="0">o</tspan></text>
    <text class="cls-1" transform="translate(38.76 103.67) rotate(-62.94)"><tspan x="0" y="0">w</tspan></text>
    <text class="cls-1" transform="translate(53.39 77.04) rotate(-51.56)"><tspan x="0" y="0"> </tspan></text>
    <text class="cls-1" transform="translate(57.87 68.66) rotate(-38.58)"><tspan x="0" y="0">m</tspan></text>
    <text class="cls-1" transform="translate(86.53 46.81) rotate(-22.2)"><tspan x="0" y="0">e</tspan></text>
    <text class="cls-1" transform="translate(106.99 38.9) rotate(-13.09)"><tspan x="0" y="0"> </tspan></text>
    <text class="cls-1" transform="translate(116.67 36.61) rotate(-7.32)"><tspan x="0" y="0">·</tspan></text>
    <text class="cls-1" transform="translate(126.68 35.29) rotate(-1.6)"><tspan x="0" y="0"> </tspan></text>
  </g>
</svg>